<svg width="101" height="101" viewBox="0 0 101 101" fill="none" xmlns="http://www.w3.org/2000/svg">
<path d="M89.7778 0C92.7541 0 95.6085 1.18234 97.7131 3.28691C99.8177 5.39149 101 8.2459 101 11.2222V89.7778C101 92.7541 99.8177 95.6085 97.7131 97.7131C95.6085 99.8177 92.7541 101 89.7778 101H11.2222C8.2459 101 5.39149 99.8177 3.28691 97.7131C1.18234 95.6085 0 92.7541 0 89.7778V11.2222C0 8.2459 1.18234 5.39149 3.28691 3.28691C5.39149 1.18234 8.2459 0 11.2222 0H89.7778ZM86.9722 86.9722V57.2333C86.9722 52.3819 85.045 47.7292 81.6146 44.2988C78.1841 40.8683 73.5314 38.9411 68.68 38.9411C63.9106 38.9411 58.3556 41.8589 55.6622 46.2356V40.0072H40.0072V86.9722H55.6622V59.3094C55.6622 54.9889 59.1411 51.4539 63.4617 51.4539C65.5451 51.4539 67.5432 52.2815 69.0164 53.7547C70.4896 55.2279 71.3172 57.226 71.3172 59.3094V86.9722H86.9722ZM21.7711 31.1978C24.2712 31.1978 26.6689 30.2046 28.4368 28.4368C30.2046 26.6689 31.1978 24.2712 31.1978 21.7711C31.1978 16.5528 26.9894 12.2883 21.7711 12.2883C19.2561 12.2883 16.8441 13.2874 15.0658 15.0658C13.2874 16.8441 12.2883 19.2561 12.2883 21.7711C12.2883 26.9894 16.5528 31.1978 21.7711 31.1978ZM29.5706 86.9722V40.0072H14.0278V86.9722H29.5706Z" fill="white"/>
</svg>
