<svg width="101" height="101" viewBox="0 0 101 101" fill="none" xmlns="http://www.w3.org/2000/svg">
<path d="M32.825 8.41667H68.175C81.6417 8.41667 92.5833 19.3583 92.5833 32.825V68.175C92.5833 74.6485 90.0117 80.8568 85.4343 85.4343C80.8568 90.0117 74.6485 92.5833 68.175 92.5833H32.825C19.3583 92.5833 8.41667 81.6417 8.41667 68.175V32.825C8.41667 26.3515 10.9883 20.1432 15.5657 15.5657C20.1432 10.9883 26.3515 8.41667 32.825 8.41667ZM31.9833 16.8333C27.9653 16.8333 24.1118 18.4295 21.2707 21.2707C18.4295 24.1118 16.8333 27.9653 16.8333 31.9833V69.0167C16.8333 77.3913 23.6087 84.1667 31.9833 84.1667H69.0167C73.0347 84.1667 76.8882 82.5705 79.7293 79.7293C82.5705 76.8882 84.1667 73.0347 84.1667 69.0167V31.9833C84.1667 23.6087 77.3913 16.8333 69.0167 16.8333H31.9833ZM72.5937 23.1458C73.9889 23.1458 75.3269 23.7001 76.3134 24.6866C77.2999 25.6731 77.8542 27.0111 77.8542 28.4062C77.8542 29.8014 77.2999 31.1394 76.3134 32.1259C75.3269 33.1124 73.9889 33.6667 72.5937 33.6667C71.1986 33.6667 69.8606 33.1124 68.8741 32.1259C67.8875 31.1394 67.3333 29.8014 67.3333 28.4062C67.3333 27.0111 67.8875 25.6731 68.8741 24.6866C69.8606 23.7001 71.1986 23.1458 72.5937 23.1458ZM50.5 29.4583C56.0806 29.4583 61.4326 31.6752 65.3787 35.6213C69.3248 39.5674 71.5417 44.9194 71.5417 50.5C71.5417 56.0806 69.3248 61.4326 65.3787 65.3787C61.4326 69.3248 56.0806 71.5417 50.5 71.5417C44.9194 71.5417 39.5674 69.3248 35.6213 65.3787C31.6752 61.4326 29.4583 56.0806 29.4583 50.5C29.4583 44.9194 31.6752 39.5674 35.6213 35.6213C39.5674 31.6752 44.9194 29.4583 50.5 29.4583ZM50.5 37.875C47.1516 37.875 43.9404 39.2051 41.5728 41.5728C39.2051 43.9404 37.875 47.1516 37.875 50.5C37.875 53.8484 39.2051 57.0596 41.5728 59.4272C43.9404 61.7949 47.1516 63.125 50.5 63.125C53.8484 63.125 57.0596 61.7949 59.4272 59.4272C61.7949 57.0596 63.125 53.8484 63.125 50.5C63.125 47.1516 61.7949 43.9404 59.4272 41.5728C57.0596 39.2051 53.8484 37.875 50.5 37.875Z" fill="white"/>
</svg>
