<svg width="101" height="101" viewBox="0 0 101 101" fill="none" xmlns="http://www.w3.org/2000/svg">
<path d="M50.1231 9.04478C44.5967 9.04478 39.1243 10.1333 34.0185 12.2482C28.9128 14.3631 24.2735 17.4629 20.3657 21.3707C12.4736 29.2629 8.0398 39.9669 8.0398 51.1281C8.0398 69.7289 20.1177 85.5102 36.8248 91.1073C38.929 91.4439 39.6023 90.1394 39.6023 89.0031V81.891C27.9452 84.416 25.4623 76.2519 25.4623 76.2519C23.5265 71.3702 20.7911 70.0656 20.7911 70.0656C16.9615 67.4564 21.0856 67.5406 21.0856 67.5406C25.294 67.8352 27.5244 71.8752 27.5244 71.8752C31.1856 78.2719 37.3719 76.3781 39.7706 75.3681C40.1494 72.6327 41.2436 70.781 42.4219 69.7289C33.0794 68.6769 23.274 65.0577 23.274 49.0239C23.274 44.3527 24.8731 40.6073 27.6086 37.6194C27.1877 36.5673 25.7148 32.1906 28.0294 26.5094C28.0294 26.5094 31.5644 25.3731 39.6023 30.8019C42.9269 29.876 46.5461 29.4131 50.1231 29.4131C53.7002 29.4131 57.3194 29.876 60.644 30.8019C68.6819 25.3731 72.2169 26.5094 72.2169 26.5094C74.5315 32.1906 73.0586 36.5673 72.6377 37.6194C75.3731 40.6073 76.9723 44.3527 76.9723 49.0239C76.9723 65.0998 67.1248 68.6348 57.7402 69.6869C59.2552 70.9914 60.644 73.5585 60.644 77.4723V89.0031C60.644 90.1394 61.3173 91.486 63.4636 91.1073C80.1706 85.4681 92.2065 69.7289 92.2065 51.1281C92.2065 45.6016 91.118 40.1293 89.0031 35.0235C86.8882 29.9177 83.7883 25.2785 79.8805 21.3707C75.9727 17.4629 71.3335 14.3631 66.2277 12.2482C61.1219 10.1333 55.6496 9.04478 50.1231 9.04478Z" fill="white"/>
</svg>
